<svg fill="none" height="24" viewBox="0 0 24 24" width="24" xmlns="http://www.w3.org/2000/svg"><g fill="#e03875"><path d="m12.009 23c-1.7902.0015-3.55362-.434-5.13732-1.2686-1.58369-.8346-2.93977-2.0431-3.95053-3.5206-1.01075-1.4775-1.64564-3.1793-1.84955-4.9578-.203914-1.7785.02931-3.57989.67943-5.24781.65012-1.66793 1.69748-3.15198 3.05119-4.32335 1.3537-1.17138 2.97283-1.99467 4.71685-2.39841 1.74403-.403753 3.56023-.375758 5.29093.08155 1.7308.45731 3.3238 1.33011 4.6407 2.54265l-2.6104 2.73092c-1.0378-.93742-2.3252-1.55369-3.7063-1.77411-1.381-.22041-2.7963-.03551-4.07433.5323-1.27804.56781-2.36395 1.49414-3.12609 2.66672-.76214 1.17257-1.16779 2.54104-1.16779 3.93954s.40565 2.767 1.16779 3.9396c.76214 1.1725 1.84805 2.0989 3.12609 2.6667 1.27803.5678 2.69333.7527 4.07433.5323 1.3811-.2204 2.6685-.8367 3.7063-1.7741l2.6104 2.7309c-2.0278 1.868-4.6846 2.9039-7.4417 2.9016z"/><path d="m20.8605 17.498c-.1784 0-.3527-.0529-.5009-.152-.1483-.099-.2639-.2398-.3321-.4046-.0682-.1647-.0861-.346-.0513-.5209s.1206-.3356.2467-.4616c.1261-.1261.2868-.212.4617-.2468s.3562-.0169.5209.0513c.1647.0683.3056.1838.4046.3321.0991.1482.152.3226.152.5009-.0006.2389-.0957.468-.2647.6369-.169.169-.398.2642-.6369.2647z"/><path d="m11.9386 14.3835c-.4719.002-.9338-.1361-1.3271-.3969-.3934-.2608-.70043-.6325-.88232-1.0679-.18188-.4355-.2304-.9152-.13941-1.3783.091-.463.31741-.8887.65053-1.2229.3332-.33431.758-.56216 1.2208-.65472s.9426-.04566 1.3787.13475c.4361.18042.8088.48627 1.0709.87867.2621.3925.4018.8539.4014 1.3258-.001.6299-.2512 1.2338-.6958 1.68-.4447.4462-1.0478.6984-1.6777.7015z"/><path d="m21.8945 14.4257c-.1783 0-.3526-.0529-.5009-.1519-.1482-.0991-.2638-.2399-.332-.4047-.0683-.1647-.0861-.346-.0514-.5209.0348-.1749.1207-.3355.2468-.4616s.2867-.212.4616-.2468.3562-.0169.521.0513c.1647.0683.3055.1838.4046.3321s.1519.3226.1519.5009c-.0005.239-.0957.468-.2646.637-.169.1689-.398.2641-.637.2646z"/><path d="m19.2137 14.3133c-.1788-.0001-.3535-.0532-.5019-.1527-.1485-.0995-.2641-.2409-.332-.4063-.0679-.1653-.0852-.3471-.0496-.5223.0356-.1751.1225-.3358.2496-.4614.1271-.1257.2887-.2108.4642-.2444.1756-.0337.3572-.0144.5217.0554.1646.0698.3047.1869.4025.3365.0979.1496.1491.3249.1471.5036-.0027.2374-.0988.4641-.2676.631-.1688.167-.3966.2606-.634.2606z"/><path d="m21.8945 11.3875c-.1783 0-.3526-.0528-.5009-.1519-.1482-.0991-.2638-.2399-.332-.4046-.0683-.1648-.0861-.3461-.0514-.521.0348-.1749.1207-.33551.2468-.4616.1261-.1261.2867-.21197.4616-.24676.1749-.03478.3562-.01693.521.05131.1647.06824.3055.1838.4046.33207.0991.14828.1519.32258.1519.50088-.0005.239-.0957.468-.2646.637-.169.1689-.398.2641-.637.2646z"/><path d="m19.2137 11.4899c-.1783 0-.3526-.0528-.5009-.1519-.1482-.0991-.2638-.2399-.332-.4046-.0683-.1648-.0861-.3461-.0513-.521.0347-.1748.1206-.3355.2467-.46159s.2868-.21196.4616-.24675c.1749-.03479.3562-.01693.521.05131.1647.06824.3055.1838.4046.33203.0991.1483.1519.3226.1519.5009 0 .2392-.0949.4685-.264.6376s-.3984.264-.6376.264z"/><path d="m20.9126 8.35543c-.1784.00039-.3529-.05215-.5014-.15097-.1485-.09883-.2644-.2395-.333-.40422-.0685-.16471-.0866-.34605-.0521-.52108.0346-.17503.1203-.33587.2463-.46216s.2867-.21236.4616-.24731c.175-.03495.3563-.01722.5212.05096.1649.06819.3058.18375.405.33206.0991.14831.152.3227.152.50111 0 .23877-.0947.4678-.2633.63682-.1687.16903-.3975.26425-.6363.26479z"/></g></svg>