<?xml version="1.0" encoding="UTF-8"?>
<svg version="1.1" xmlns="http://www.w3.org/2000/svg" width="50" height="50">
<path d="M0 0 C5.7725135 5.08714818 9.62028958 9.94913503 10.20703125 17.75390625 C10.46032746 25.24959771 10.05078539 31.20026054 5.265625 37.16015625 C-0.61347988 43.43803762 -5.69926689 46.10498061 -14.375 46.4375 C-22.60016892 46.20168667 -28.18245713 44.27460787 -33.875 38.25 C-38.78333275 32.07757227 -40.57093368 26.33102895 -40.28125 18.44921875 C-39.45756975 11.2763366 -36.3005207 5.85675618 -31 1 C-21.5692847 -5.73622521 -9.91084987 -6.05304349 0 0 Z " fill="#FE5826" transform="translate(40,4)"/>
<path d="M0 0 C0.99 0.66 1.98 1.32 3 2 C4.32 1.34 5.64 0.68 7 0 C7 0.66 7 1.32 7 2 C8.98 1.67 10.96 1.34 13 1 C13 1.66 13 2.32 13 3 C14.093125 2.938125 15.18625 2.87625 16.3125 2.8125 C20 3 20 3 21.9375 4.375 C23 6 23 6 23 8 C23.51240234 8.85464844 23.51240234 8.85464844 24.03515625 9.7265625 C26.06837145 14.51737726 24.28715269 20.13540885 23 25 C21.00021142 28.79608989 18.13083014 31.62305662 14 33 C13.01 33 12.02 33 11 33 C11 33.99 11 34.98 11 36 C12.485 35.505 12.485 35.505 14 35 C14 35.66 14 36.32 14 37 C18.95 38.485 18.95 38.485 24 40 C19.54768758 44.45231242 15.96474117 45.29994274 9.75 45.375 C3.6869105 45.30602287 -0.77801158 44.02254627 -6 41 C-1.94191935 38.2946129 2.04889399 36 7 36 C7 35.01 7 34.02 7 33 C6.278125 32.938125 5.55625 32.87625 4.8125 32.8125 C1.12201365 31.7463595 -0.49572729 29.85208836 -3 27 C-4.44207941 24.11584117 -4.09394887 21.58278472 -4.0625 18.375 C-4.05347656 17.18648437 -4.04445313 15.99796875 -4.03515625 14.7734375 C-4.02355469 13.85820312 -4.01195312 12.94296875 -4 12 C-4.99 12.33 -5.98 12.66 -7 13 C-6.25 7.25 -6.25 7.25 -4 5 C-3.01 5 -2.02 5 -1 5 C-0.67 3.35 -0.34 1.7 0 0 Z " fill="#F4C78B" transform="translate(16,5)"/>
<path d="M0 0 C0.99 0.66 1.98 1.32 3 2 C4.32 1.34 5.64 0.68 7 0 C7 0.66 7 1.32 7 2 C8.98 1.67 10.96 1.34 13 1 C13 1.66 13 2.32 13 3 C14.093125 2.938125 15.18625 2.87625 16.3125 2.8125 C20 3 20 3 21.9375 4.375 C23 6 23 6 23 8 C23.66 9.32 24.32 10.64 25 12 C18.73 11.67 12.46 11.34 6 11 C6 11.99 6 12.98 6 14 C5.01 13.67 4.02 13.34 3 13 C3.33 12.34 3.66 11.68 4 11 C1.35247996 13.57784846 -0.94432065 15.91648098 -3 19 C-3.33 16.69 -3.66 14.38 -4 12 C-4.99 12.33 -5.98 12.66 -7 13 C-6.25 7.25 -6.25 7.25 -4 5 C-3.01 5 -2.02 5 -1 5 C-0.67 3.35 -0.34 1.7 0 0 Z " fill="#FDEB3A" transform="translate(16,5)"/>
<path d="M0 0 C2.81256281 -0.02684312 5.62487241 -0.04676188 8.4375 -0.0625 C9.23994141 -0.07087891 10.04238281 -0.07925781 10.86914062 -0.08789062 C12.91295221 -0.0965143 14.95683902 -0.0522815 17 0 C18.64745596 1.64745596 18.1709616 3.55335451 18.1875 5.8125 C18.20167969 6.68519531 18.21585938 7.55789062 18.23046875 8.45703125 C17.99010406 11.10919085 17.34187309 12.72464999 16 15 C15.34 14.566875 14.68 14.13375 14 13.6875 C10.42285044 11.67535337 6.86509858 10.37571305 3 9 C3 7.35 3 5.7 3 4 C2.01 4 1.02 4 0 4 C0 2.68 0 1.36 0 0 Z " fill="#80E2BA" transform="translate(22,16)"/>
<path d="M0 0 C0 0.99 0 1.98 0 3 C0.66 2.67 1.32 2.34 2 2 C5.0625 1.875 5.0625 1.875 8 2 C8.33 2.33 8.66 2.66 9 3 C9.33 2.01 9.66 1.02 10 0 C13.3 0.99 16.6 1.98 20 3 C15.54768758 7.45231242 11.96474117 8.29994274 5.75 8.375 C-0.3130895 8.30602287 -4.77801158 7.02254627 -10 4 C-4 0 -4 0 0 0 Z " fill="#FEC04D" transform="translate(20,42)"/>
<path d="M0 0 C0 0.99 0 1.98 0 3 C0.99 2.67 1.98 2.34 3 2 C3 3.98 3 5.96 3 8 C-1.97306516 7.50269348 -5.63799813 6.44697666 -10 4 C-4 0 -4 0 0 0 Z " fill="#FEBB44" transform="translate(20,42)"/>
<path d="M0 0 C0.66 0 1.32 0 2 0 C4.4294516 3.6441774 4.16179575 5.71241272 4 10 C1.36 8.35 -1.28 6.7 -4 5 C-3.67 4.34 -3.34 3.68 -3 3 C-2.01 3 -1.02 3 0 3 C0 2.01 0 1.02 0 0 Z " fill="#71E7D2" transform="translate(34,21)"/>
<path d="M0 0 C0.66 0.33 1.32 0.66 2 1 C-0.97 3.97 -3.94 6.94 -7 10 C-7.66 9.67 -8.32 9.34 -9 9 C-8.06725891 7.87105124 -7.12859878 6.74699124 -6.1875 5.625 C-5.66542969 4.99851562 -5.14335938 4.37203125 -4.60546875 3.7265625 C-3 2 -3 2 0 0 Z " fill="#FE6337" transform="translate(12,3)"/>
<path d="M0 0 C1.32 0 2.64 0 4 0 C4 1.98 4 3.96 4 6 C2.68 6 1.36 6 0 6 C0 4.02 0 2.04 0 0 Z " fill="#69604D" transform="translate(23,44)"/>
<path d="M0 0 C1.65 0 3.3 0 5 0 C5 2.64 5 5.28 5 8 C1.75267068 6.37633534 1.29844864 3.24612161 0 0 Z " fill="#6FEDBA" transform="translate(33,16)"/>
</svg>
